<?xml version="1.0"?>
<svg xmlns="http://www.w3.org/2000/svg" height="512px" viewBox="-58 0 512 512.00174" width="512px"><path d="m392.632812 310.332031c-2.957031-3.632812-7.34375-5.71875-12.03125-5.71875h-.292968c1.03125-2.644531 1.605468-5.523437 1.605468-8.53125 0-12.824219-10.3125-23.285156-23.078124-23.527343-16.089844-54.550782-58.28125-96.183594-110.707032-112.605469 3.628906-7.5 5.527344-15.730469 5.527344-24.191407 0-20.65625-11.332031-38.707031-28.101562-48.292968 27.152343-49.566406 64.167968-73.292969 64.664062-73.609375 3.507812-2.195313 4.574219-6.820313 2.378906-10.328125-2.195312-3.511719-6.820312-4.582032-10.332031-2.386719-1.730469 1.078125-41.523437 26.382813-70.71875 80.683594-4.320313-1.082031-8.835937-1.664063-13.484375-1.664063-30.65625 0-55.597656 24.941406-55.597656 55.597656 0 8.476563 1.898437 16.695313 5.527344 24.191407-52.425782 16.421875-94.617188 58.054687-110.707032 112.601562-12.765625.242188-23.078125 10.707031-23.078125 23.53125 0 3.007813.574219 5.882813 1.609375 8.53125h-.296875c-4.6875 0-9.074219 2.082031-12.03125 5.71875-2.960937 3.632813-4.113281 8.351563-3.160156 12.941407l36.480469 176.355468c1.484375 7.167969 7.875 12.371094 15.195312 12.371094h292.109375c7.324219 0 13.710938-5.203125 15.195313-12.371094l36.488281-176.355468c.949219-4.589844-.203125-9.304688-3.164063-12.941407zm-235.167968-174.570312c0-22.386719 18.210937-40.597657 40.597656-40.597657 22.382812 0 40.59375 18.210938 40.59375 40.597657 0 7.179687-1.871094 14.128906-5.421875 20.273437-11.386719-2.441406-23.160156-3.726562-35.171875-3.726562-12.015625 0-23.789062 1.285156-35.175781 3.726562-3.554688-6.144531-5.421875-13.082031-5.421875-20.273437zm-128.257813 160.320312c0-4.703125 3.824219-8.53125 8.53125-8.53125h48.097657c4.140624 0 7.5-3.359375 7.5-7.5s-3.359376-7.5-7.5-7.5h-32.84375c20.398437-62.433593 78.714843-105.242187 145.066406-105.242187 69.625 0 130.402344 47.128906 147.804687 114.613281.855469 3.3125 3.84375 5.628906 7.261719 5.628906h5.257812c4.703126 0 8.53125 3.828125 8.53125 8.53125s-3.828124 8.53125-8.53125 8.53125h-320.644531c-4.707031 0-8.53125-3.824219-8.53125-8.53125zm256.675781 200.917969 14.863282-137.945312c.445312-4.121094-2.535156-7.820313-6.652344-8.261719-4.121094-.441407-7.816406 2.535156-8.261719 6.652343l-15.039062 139.554688h-36.328125l6.882812-177.386719h48.5625l-.902344 8.351563c-.441406 4.117187 2.535157 7.816406 6.65625 8.257812.273438.03125.542969.042969.8125.042969 3.78125 0 7.03125-2.851563 7.445313-6.695313l1.074219-9.957031h36.542968l-29.054687 177.386719zm-160.558593 0-19.113281-177.386719h48.5625l6.878906 177.386719zm44.460937-177.386719h56.550782l-6.878907 177.386719h-42.792969zm-118.285156 176.976563-36.488281-176.355469c-.015625-.070313-.046875-.238281.105469-.429687.15625-.191407.328124-.191407.398437-.191407h23.867187l22.292969 136.121094c.601563 3.675781 3.785157 6.289063 7.390625 6.289063.40625 0 .8125-.035157 1.222656-.101563 4.089844-.667969 6.859376-4.527344 6.191407-8.613281l-21.898438-133.695313h36.539063l19.117187 177.386719h-26.601562l-2.007813-12.265625c-.671875-4.089844-4.527344-6.859375-8.617187-6.191406-4.085938.667969-6.855469 4.527343-6.1875 8.613281l1.613281 9.84375h-16.433594c-.242187 0-.453125-.171875-.503906-.410156zm329.609375-176.355469-36.488281 176.355469c-.050782.238281-.261719.410156-.503906.410156h-16.433594l29.054687-177.386719h23.863281c.074219 0 .246094 0 .402344.191407.152344.191406.117188.359374.105469.429687zm0 0" fill="#D80027"/></svg>
